<svg xmlns="http://www.w3.org/2000/svg" viewBox="0 0 1253 1080"><path fill="#fbfbfb" stroke="#fbfbfb" d="M240.168 244.015c-4.032 4.398-7.182 8.364-7 8.814.183.45 164.132 151.964 364.332 336.699 200.2 184.734 383.35 353.745 407 375.58 32.326 29.844 43.315 39.44 44.268 38.658.697-.572 4.379-4.492 8.183-8.712l6.916-7.671-21.684-19.985c-11.926-10.992-115.068-106.14-229.205-211.441A17426140.532 17426140.532 0 0 0 427.682 400.5c-97.776-90.2-178.316-164.108-178.978-164.241-.662-.132-4.503 3.358-8.536 7.756m718.255 45.326c-.283.737-.382 9.288-.219 19.001l.296 17.66-140.25-.001L678 326v195.005l205.75-.253 205.75-.252.271-19.75.271-19.75H1128V288h-84.531c-69.753 0-84.622.234-85.046 1.341m-246.996 77.987c-.284.742-.384 4.909-.222 9.26l.295 7.912 17.5.5 17.5.5.5 47.5.5 47.5 10.418.287c7.662.211 10.634-.054 11.235-1 .449-.708.823-22.314.832-48.014l.015-46.727 17.75-.273 17.75-.273v-18l-46.778-.26c-38.497-.214-46.869-.021-47.295 1.088m111.043-.108c-.269.704-.373 26.48-.23 57.28l.26 56h21l.264-32.329c.205-25.127.539-32.237 1.5-31.92 1.251.413 4.304 8.275 16.211 41.749 9.041 25.417 7.195 23 17.572 23 5.75 0 9.058-.425 9.739-1.25 1.012-1.227 3.423-7.766 16.492-44.718 3.593-10.158 7.025-18.633 7.627-18.834.778-.259 1.099 8.721 1.11 30.969.009 17.233.383 31.913.833 32.621.598.943 3.474 1.211 10.735 1l9.917-.288v-114l-11-.291c-15.452-.408-14.793-.752-18.316 9.537-7.694 22.466-23.11 66.159-24.589 69.691-2.372 5.662-3.312 4.175-11.03-17.437a16974.001 16974.001 0 0 0-14.36-40l-7.753-21.5-12.746-.28c-9.642-.212-12.865.032-13.236 1m137.229-.586c-1.515 1.516-.755 78.502.842 85.279 4.061 17.226 15.65 27.397 34.329 30.128 26.535 3.88 46.207-6.409 53.308-27.883 2.084-6.3 2.223-8.735 2.593-45.323.275-27.237.061-39.281-.725-40.75-1.363-2.546-18.871-3.205-20.88-.785-.72.868-1.176 14.56-1.372 41.25-.322 43.79-.199 42.865-6.618 49.724-6.894 7.367-26.357 7.367-33.413 0-6.14-6.41-6.216-6.99-6.763-51.274l-.5-40.5-10.051-.283c-5.527-.155-10.365.032-10.75.417m-755.1 262.123c-3.796 9.209-8.351 20.118-10.123 24.243a1466.41 1466.41 0 0 0-6.727 16c-4.906 11.895-10.504 25.345-13.735 33a2511.068 2511.068 0 0 0-6.452 15.5c-2.04 4.95-5.026 12.041-6.636 15.759-3.255 7.519-3.602 9.741-1.52 9.741.92 0 1.224.701.877 2.025-.518 1.981-.17 2.02 15.803 1.75l16.333-.275 1.198-3.5c.658-1.925 2.41-6.987 3.891-11.25l2.695-7.75h18.998l-.351 9.166c-.256 6.7-.014 9.278.9 9.583.688.23 1.25 1.28 1.25 2.334 0 1.812.908 1.917 16.642 1.917h16.642l-.511-65.706c-.37-47.577-.823-65.811-1.642-66.084-.622-.207-1.131-1.014-1.131-1.793 0-1.175-3.374-1.416-19.75-1.41l-19.75.008-6.901 16.742M529 618.448c-29.472 10.038-38.145 13.196-60.5 22.025-98.934 39.077-191.408 93.659-247.36 146.003-5.011 4.688-9.383 8.524-9.716 8.524-.333 0-2.927-1.946-5.765-4.325-27.179-22.781-61.494-39.342-87.409-42.186-8.736-.958-8.273.237 4.462 11.52 44.224 39.181 76.159 76.162 82.247 95.241 1.263 3.96 2.421 4.679 3.741 2.323 1.028-1.835 16.574-18.697 31.3-33.95 25.628-26.544 68.559-64.584 99.5-88.163 6.473-4.933 6.341-4.968 4.982 1.318-2.673 12.365-13.1 60.067-16.44 75.216-1.865 8.454-1.927 9.617-.568 10.611.839.613 1.526 1.628 1.526 2.255 0 .807 4.813 1.14 16.481 1.14 16.262 0 16.488-.03 17.028-2.25.301-1.237 2.134-9.675 4.074-18.75 1.939-9.075 4.831-22.575 6.426-30 1.595-7.425 4.482-20.925 6.416-30 4.07-19.1 7.838-35.666 9.499-41.764 1.074-3.946 8.177-10.468 9.719-8.926.454.453-2.485 14.874-9.21 45.19-4.719 21.277-9.994 45.429-12.94 59.247-1.318 6.185-2.866 12.935-3.44 15-1.415 5.098-1.317 7.253.33 7.253.761 0 1.621.906 1.91 2.012.517 1.977 1.181 2.008 37.784 1.75l37.257-.262.719-2.5c.396-1.375 1.702-7.225 2.902-13 1.201-5.775 2.407-11.288 2.681-12.25.323-1.134-.053-1.75-1.069-1.75-.862 0-1.567-.675-1.567-1.5 0-1.282-2.846-1.5-19.617-1.5h-19.616l.589-2.25c.324-1.237 1.331-5.625 2.237-9.75.907-4.125 1.805-8.062 1.996-8.75.263-.944 5.013-1.25 19.411-1.25 14.383 0 19.155-.307 19.439-1.25 3.386-11.233 5.803-26.1 4.409-27.119-.851-.622-1.502-1.581-1.447-2.131.062-.622-6.415-1.103-17.151-1.274-18.695-.296-17.959-.015-16.308-6.226.511-1.925 1.426-5.413 2.033-7.75l1.102-4.25h20.462c11.253 0 20.461-.265 20.461-.589 0-.325 1.35-6.432 3-13.572 3.483-15.072 3.459-14.839 1.5-14.839-.833 0-1.5-.889-1.5-2 0-1.96-.667-2-33.196-2h-33.196l4.946-3.139c6.884-4.369 17.311-10.746 21.255-13.002 23.677-13.535 23.292-13.323 39.3-21.687 20.979-10.961 50.326-24.336 74.137-33.788 2.611-1.036 4.748-2.221 4.75-2.634.009-1.787-6.685-.198-23.996 5.698m-307.723 44.83c-1.163 3.422-3.948 11.397-6.191 17.722-2.242 6.325-4.078 11.725-4.079 12 0 .275 2.473.5 5.496.5 4.219 0 5.498-.349 5.499-1.5.001-.825.485-8.853 1.077-17.839.592-8.987.904-16.512.693-16.722-.21-.211-1.333 2.417-2.495 5.839m290.954 23.327c-19.994 4.917-32.427 23.307-41.508 61.395-12.877 54.012-7.003 74.299 22.576 77.975 31.301 3.89 51.286-10.644 59.531-43.292 2.707-10.717 2.831-11.88 1.327-12.5-.911-.375-1.657-1.358-1.657-2.183 0-1.27-2.434-1.5-15.906-1.5h-15.905l-2.811 10.779C513.638 793.534 510.247 799 504.4 799c-5.097 0-5.139-3.447-.346-28.5 8.106-42.374 13.862-57.5 21.879-57.5 4.177 0 4.449 1.203 2.627 11.619-1.9 10.863-1.908 11.381-.171 11.381.764 0 1.326.788 1.25 1.75-.126 1.588 1.321 1.776 15.626 2.025l15.765.276 1.147-2.776c2.098-5.074 2.316-30.434.298-34.686-2.681-5.649-9.994-13.172-14.717-15.139-5.957-2.48-26.856-2.977-35.527-.845M96.5 702.473c-20.657 4.524-33.111 18.367-37.766 41.977-4.012 20.35 2.41 32.123 23.266 42.654 12.96 6.543 14 7.481 14 12.624C96 808.642 90.643 815 83.132 815H78.71l.587-7c.478-5.701.319-7-.855-7-.793 0-1.442-.9-1.442-2 0-1.914-.667-2-15.525-2H45.95l-1.122 2.75c-2.615 6.406-2.287 20.791.609 26.711C51.702 839.266 59.204 842.54 82 842.415c31.13-.169 46.686-12.424 52.558-41.406 4.059-20.03-3.541-33.495-24.926-44.164C97.228 750.656 95 748.745 95 744.294c0-7.738 5.39-14.294 11.751-14.294h3.482l-.414 6.5c-.31 4.873-.089 6.5.884 6.5.713 0 1.297.9 1.297 2 0 2.896 30.328 3.137 31.49.25 1.482-3.681 1.791-18.175.487-22.833-4.608-16.458-24.754-24.92-47.477-19.944M253.831 831.53c-6.078 3.3-5.944 11.352.242 14.507 4.198 2.142 4.617 2.873 2.727 4.763-1.822 1.822-3.8 1.436-3.8-.741 0-2.52-1.517-3.397-4.557-2.634-1.87.469-2.443 1.276-2.443 3.439 0 9.677 16.714 7.383 18.616-2.555.56-2.927.226-3.462-4.035-6.465-4.681-3.299-5.628-6.019-2.32-6.656 1.2-.231 1.739.308 1.739 1.739 0 2.591 5.427 3.009 6.393.491 2.232-5.816-5.78-9.572-12.562-5.888m15.753 11.451c-5.026 10.068-6.211 13.225-5.12 13.644 2.465.945 5.001-.057 6.023-2.381 1.386-3.151 6.246-3.147 6.693.006.251 1.762.97 2.25 3.32 2.25 3.592 0 4.099-3.188 2.782-17.5l-.782-8.5-3.188-.309c-3.157-.306-3.251-.183-9.728 12.79m18.451-11.047c-1.619 3.026-1.24 4.066 1.484 4.066 2.1 0 2.432.374 1.997 2.25-1.195 5.152-3.516 16.954-3.516 17.882 0 .55 1.238.858 2.75.684 2.592-.298 2.897-.889 5.322-10.316 2.386-9.278 2.762-10.023 5.202-10.312 2.639-.313 4.448-3.212 3.232-5.179-1.249-2.02-15.317-1.23-16.471.925m18.932.316c-1.43 3.25-5.758 23.626-5.148 24.236 1.665 1.665 14.158.426 15.192-1.507 1.547-2.891.434-3.979-4.07-3.979-6.417 0-5.008-4.64 1.572-5.176 3.511-.285 4.025-.653 4.303-3.074.293-2.545.051-2.75-3.25-2.75-2.899 0-3.566-.374-3.566-2 0-1.696.667-2 4.393-2 4.373 0 5.607-1.008 5.607-4.582 0-2.705-13.813-1.94-15.033.832m20.858-.717c-5.349 2.905-9.604 19.688-5.924 23.368 5.286 5.286 16.099.348 16.099-7.351 0-3.12-5.676-1.918-6.85 1.45-1.544 4.427-4.164 3.948-4.096-.75.123-8.476 6.309-17.653 7.124-10.568.604 5.251 5.886 3.784 6.041-1.679.159-5.581-6.155-7.858-12.394-4.47m22.415.577c-12.777 6.325-12.708 23.181.101 24.625 7.265.819 17.688-4.245 13.749-6.679-1.085-.671-1.056-.982.155-1.689 1.938-1.132 4.755-6.69 4.755-9.383 0-7.734-9.781-11.318-18.76-6.874m22.131-.635c-.341.888-.676 6.882-.745 13.32L371.5 856.5l2.586.301c3.166.368 4.166-.82 6.362-7.551 2.241-6.871 2.831-6.625 2.403 1l-.351 6.25h3.361c3 0 3.526-.43 4.89-4 .841-2.2 3.041-7.509 4.889-11.798 4.041-9.378 4.151-10.702.895-10.702-2.71 0-3.711 1.421-6.611 9.382l-1.864 5.118.22-7c.215-6.831.16-7-2.242-7-2.588 0-3.627 1.415-6.808 9.275l-1.73 4.274v-6.774c0-6.269-.169-6.799-2.254-7.095-1.374-.195-2.497.311-2.875 1.295m40.857-.25c-1.704 2.054-12.193 23.118-12.212 24.525-.03 2.302 4.857 1.373 6.576-1.25 2.201-3.36 7.124-3.522 7.588-.25.229 1.611 1.101 2.34 3.07 2.566l2.75.317-.1-10.817c-.124-13.456-.69-15.723-4.025-16.117-1.4-.165-3.041.296-3.647 1.026m25.1-.081c-.94 1.164-5.8 21.504-5.821 24.356-.004.55 1.339 1 2.983 1 2.779 0 3.052-.336 3.859-4.75.755-4.133 1.185-4.75 3.309-4.75 7.882 0 14.092-10.643 8.781-15.05-2.3-1.91-11.753-2.491-13.111-.806m49.141 1.356c-.258.825-.692 2.206-.964 3.069-.302.956-1.181 1.358-2.25 1.03-.965-.296-3.977-.213-6.693.185l-4.938.723-2.248 8.945c-2.467 9.814-2.386 10.548 1.155 10.548 2.089 0 2.624-.773 3.984-5.75 2.089-7.649 2.642-8.514 6.011-9.415 3.779-1.011 3.748-1.107 2.038 6.219-1.687 7.232-1.012 8.946 3.523 8.946 3.365 0 5.87-3.362 3.499-4.697-1.98-1.114.053-10.039 2.597-11.401 1.917-1.026 2.52-3.902.817-3.902-.55 0-1-1.35-1-3 0-3.314-4.577-4.555-5.531-1.5m-136.219 4.489c-1.788 1.09-3.25 2.207-3.25 2.482 0 .275 1.462-.398 3.25-1.496 2.506-1.538 4.28-1.862 7.75-1.414 3.313.428 4.104.303 3-.474-2.365-1.665-7.206-1.259-10.75.902m91.357.593c-.892 2.324-.74 4.418.322 4.418 1.426 0 4.071-2.97 4.071-4.571 0-1.945-3.637-1.818-4.393.153m15.75-.59c-5.144 2.075-9.147 14.373-5.86 18.004 5.989 6.619 16.503-1.943 16.503-13.439 0-4.132-5.68-6.568-10.643-4.565m39.842 1.494c-4.512 3.797-6.675 13.896-3.628 16.943 3.635 3.634 13.429.072 13.429-4.884 0-2.032-4.861-2.072-5.638-.045-.814 2.121-3.585 1.903-3.177-.25.247-1.302 1.61-1.878 5.324-2.25l4.991-.5.318-4.464c.511-7.168-5.643-9.578-11.619-4.55m23.432-1.784c-.386.386-2.24.598-4.12.472-3.18-.214-3.488.034-4.402 3.548-3.975 15.27-3.994 15.385-2.589 15.924 3.422 1.313 4.983-.167 6.489-6.151 1.821-7.232 2.556-8.495 4.943-8.495 1.818 0 3.048-1.849 3.048-4.582 0-1.477-2.15-1.934-3.369-.716M413.73 840.75a40.476 40.476 0 0 1-1.224 3.5c-.51 1.24-.251 1.75.887 1.75 1.17 0 1.607-.952 1.607-3.5 0-3.82-.483-4.486-1.27-1.75m-52.054 2.857-1.825 3.893 2.172-2.125c1.194-1.169 2.015-2.921 1.824-3.893-.245-1.251-.881-.629-2.171 2.125m-86.054-.782c-.443 1.279-.539 2.592-.213 2.917 1.036 1.037 1.765-.492 1.385-2.906l-.368-2.336-.804 2.325m78.128-.713c-1.76.993-2.481 4.888-.905 4.888.465 0 1.669-.911 2.676-2.024 2.16-2.386.923-4.384-1.771-2.864m105.801-.195c-1.238 2.003-1.816 10.083-.722 10.083 1.688 0 3.171-3.476 3.171-7.434 0-3.37-1.2-4.669-2.449-2.649m42.116-.25c-1.151 1.15-.729 2.333.833 2.333.825 0 1.5-.675 1.5-1.5 0-1.562-1.183-1.984-2.333-.833m-107.681 9.583c-.007.688-.285 2.263-.616 3.5-.8 2.986 4.02 3.258 5.595.316 1.873-3.5 1.265-5.066-1.965-5.066-1.726 0-3.006.531-3.014 1.25m29.439 1.193c-1.228 4.892 3.815 6.685 5.6 1.992 1.478-3.889 1.231-4.435-2.006-4.435-2.327 0-3.115.536-3.594 2.443" fill-rule="evenodd"/><path fill="#bcc8d9" stroke="#bcc8d9" d="m240.497 244.131-7.74 8.102 4.871 4.76c11.318 11.06 809.454 747.007 810.13 747.006 1.505-.001 15.344-16.026 14.716-17.041-.751-1.215-811.402-749.183-813.105-750.232-.665-.41-4.32 2.641-8.872 7.405m578.253 82.622-140.75.254v192.998l205.75-.253 205.75-.252v-193h-65c-35.75 0-128.337.114-205.75.253M711.533 366.61c-1.271 1.271-1.55 3.324-1.322 9.75l.289 8.14 17.147.273c12.691.202 17.431.616 18.24 1.59.747.901 1.175 15.984 1.353 47.727l.26 46.41h22l.26-46.41c.181-32.239.6-46.819 1.373-47.75.849-1.023 5.101-1.34 17.989-1.34H806v-9.393c0-7.643-.295-9.506-1.582-10-4.12-1.581-91.242-.64-92.885 1.003m111.217-.53c-1.633.951-1.75 4.711-1.75 56.388 0 30.453.273 56.08.607 56.95.502 1.309 2.489 1.582 11.5 1.582H844l.111-13.75c.061-7.562.173-21.925.25-31.916.141-18.456.606-21.653 2.42-16.635.557 1.541 5.516 15.401 11.019 30.801 5.504 15.4 10.323 28.788 10.71 29.75.809 2.01 19.801 2.675 20.999.735.661-1.068 4.502-11.708 14.978-41.485 7.776-22.104 7.534-21.5 8.606-21.5.483 0 .998 14.288 1.143 31.75l.264 31.75h22l.258-56.936c.204-44.886-.008-57.105-1-57.735-1.612-1.023-23.864-1.048-25.47-.028-.666.423-7.692 18.958-15.612 41.188-7.919 22.23-14.799 40.552-15.288 40.715-.488.162-4.465-9.717-8.838-21.954-15.98-44.725-21.415-59.049-22.719-59.875-1.885-1.196-22.973-1.023-25.081.205m136.45.12c-1.883 1.883-1.641 75.057.278 84.112 4.643 21.914 19.782 32.71 45.821 32.676 24.265-.031 39.166-10.895 44.193-32.219 2.123-9.004 2.215-82.938.105-84.688-1.475-1.225-18.491-1.382-20.421-.19-.691.427-1.177 14.09-1.428 40.128-.405 42.136-.645 44.329-5.495 50.092-7.558 8.982-27.007 9.404-34.955.757-5.606-6.098-5.731-7.124-6.11-50.359-.255-29.082-.67-40.194-1.519-40.735-1.98-1.259-19.141-.902-20.469.426M209.729 617.75C205.276 627.813 158 741.699 158 742.363c0 .35.675.637 1.5.637s1.5.686 1.5 1.525c0 1.314 2.171 1.488 15.668 1.25l15.668-.275 3.482-10.5c1.915-5.775 3.977-10.84 4.582-11.255.605-.415 5.15-.64 10.1-.5l9 .255-.325 9.75c-.278 8.344-.098 9.75 1.25 9.75.866 0 1.575.675 1.575 1.5 0 1.27 2.417 1.5 15.75 1.5l15.75.001-.284-64.209c-.242-54.732-.5-64.449-1.75-65.829-.806-.891-1.466-2.148-1.466-2.792 0-.853-5.116-1.171-18.863-1.171h-18.864l-2.544 5.75M545 613.993c-1.375.459-8.35 2.7-15.5 4.98-68.345 21.798-151.138 59.512-211.437 96.316-37.773 23.055-65.336 43.697-102.117 76.477l-4.554 4.059-7.446-5.938C174.77 766.62 141.939 750.958 119 749.364l-7.5-.521 4 3.736c2.2 2.054 11.82 10.977 21.378 19.828 37.84 35.041 60.353 61.714 67.377 79.829 1.229 3.17 2.521 5.764 2.87 5.764.35 0 4.852-4.824 10.005-10.72 9.691-11.087 36.363-38.266 50.37-51.327 27.933-26.047 78.5-67.77 78.5-64.771 0 .741-4.08 19.791-9.067 42.333C326.209 821.989 326.207 822 328.275 822c1.045 0 1.37.64 1.015 2-.507 1.939-.031 2 15.534 2 8.832 0 16.27-.344 16.53-.764.26-.42 1.621-6.158 3.026-12.75 12.758-59.889 21.24-98.48 23.931-108.883 1.105-4.272 1.933-5.325 6.478-8.241 2.866-1.839 5.211-2.932 5.211-2.429 0 .504-1.978 9.837-4.396 20.741A15114.13 15114.13 0 0 0 386.951 753a22304.376 22304.376 0 0 1-9.448 43c-4.041 18.297-4.893 23.572-3.847 23.823.739.178 1.344 1.191 1.344 2.25 0 2.863 74.536 3.038 75.383.177 3.441-11.625 5.668-25.642 4.203-26.462-.872-.488-1.586-1.54-1.586-2.338 0-1.216-3.067-1.45-19-1.45-14.899 0-19-.28-19-1.297 0-1.819 3.98-19.862 4.605-20.872.282-.457 9.002-.831 19.378-.831h18.864l2.652-11.75c1.459-6.462 2.836-12.33 3.06-13.038.224-.708-.26-1.544-1.076-1.857-.816-.313-1.483-1.439-1.483-2.503 0-1.842-.827-1.93-17.25-1.834-9.488.056-17.207-.263-17.154-.708.053-.446.912-4.514 1.909-9.04l1.813-8.23 20.533-.27 20.533-.27 2.792-12.5c3.058-13.696 3.321-16 1.824-16-.55 0-1-.669-1-1.487 0-1.282-4.717-1.523-34.186-1.75l-34.187-.263 15.211-9.303c38.517-23.556 79.448-44.397 116.412-59.272 5.913-2.38 10.75-4.686 10.75-5.126 0-.95-.673-.917-4 .194m-321.455 41.114c-.276.766-3.17 9.043-6.43 18.393-3.261 9.35-6.244 17.788-6.629 18.75-.621 1.552-.009 1.75 5.407 1.75 3.359 0 6.133-.337 6.165-.75 1.041-13.524 2.529-38.854 2.3-39.143-.171-.216-.537.234-.813 1m289.553 31.881c-22.567 6.095-33.986 24.414-44.263 71.012-4.62 20.949-4.863 44.901-.53 52.271 6.448 10.97 13.394 14.583 29.695 15.445 29.285 1.55 46.746-12.301 54.48-43.216 2.956-11.815 2.928-11.5 1.02-11.5-.833 0-1.5-.889-1.5-2 0-1.914-.667-2-15.461-2h-15.462l-.978 3.75c-.538 2.063-1.713 6.643-2.612 10.179-3.342 13.147-7.462 18.492-13.783 17.881l-3.204-.31.179-8c.293-13.032 10.896-60.022 15.811-70.069 2.621-5.358 7.548-8.95 11.3-8.238 2.363.449 2.734 7.743.81 15.929-1.308 5.566-1.314 6.519-.049 7.488.797.611 1.449 1.635 1.449 2.276 0 .849 4.261 1.09 15.71.889l15.71-.275 1.246-6c4.618-22.229-1.726-39.758-16.273-44.967-7.693-2.754-24.12-3.023-33.295-.545M93.691 703.444c-17.531 5.027-28.635 17.288-33.743 37.259-5.588 21.849.591 34.773 21.82 45.636 13.298 6.805 15.701 9.127 14.983 14.48-1.204 8.98-6.66 15.169-13.379 15.177-4.773.006-5.881-2.034-4.685-8.631.803-4.429.734-5.65-.341-6.062-.74-.285-1.346-1.144-1.346-1.91 0-1.132-2.971-1.393-15.863-1.393H45.274l-1.233 7.649c-4.448 27.568 14.476 41.683 48.443 36.132 23.468-3.835 36.97-16.989 41.548-40.479 3.902-20.024-3.577-33.275-24.966-44.233-15.516-7.949-17.303-10.602-13.185-19.569 2.624-5.715 5.376-7.814 10.379-7.914l4.24-.086-.154 6.75c-.119 5.202.167 6.75 1.25 6.75.772 0 1.404.9 1.404 2 0 1.908.667 2 14.525 2h14.525l1.036-2.725c1.528-4.019 1.515-18.167-.021-22.775-2.338-7.013-7.588-13.125-13.864-16.138-6.929-3.327-26.844-4.403-35.51-1.918M256.255 831.2c-7.248 1.909-8.501 10.834-2.008 14.3 3.942 2.104 4.753 4.426 2.266 6.489-1.992 1.654-4.513.56-4.513-1.958 0-1.513-.653-2.031-2.56-2.031-4.107 0-3.208 7.031 1.043 8.16 10.706 2.842 18.971-9.337 9.585-14.125-4.545-2.319-5.307-3.248-4.464-5.445.774-2.017 4.396-2.092 4.396-.09 0 1 1 1.5 3 1.5 2.492 0 3-.402 3-2.378 0-4.03-4.126-5.902-9.745-4.422m72.952.333c-6.955 2.971-10.755 21.406-4.992 24.218 5.194 2.534 13.785-2.7 13.785-8.399 0-2.818-5.043-1.527-6.122 1.568-1.093 3.135-3.632 4.726-5.138 3.22-1.161-1.161.886-11.765 2.875-14.89 1.961-3.082 4.385-2.907 4.385.316 0 3.713 5.353 3.189 5.792-.567.606-5.182-4.76-7.954-10.585-5.466m25.293-.579c-7.192 1.676-12.444 7.372-13.231 14.348-1.161 10.301 11.965 15.152 20.886 7.718 2.214-1.844 2.233-1.956.345-1.998-1.694-.037-1.507-.433 1.226-2.587 9.868-7.777 3.216-20.381-9.226-17.481m-84.492 12.031c-7.009 13.98-6.774 13.015-3.169 13.015 2.059 0 3.153-.688 3.979-2.5.849-1.864 1.908-2.5 4.161-2.5 2.556 0 3.021.385 3.021 2.5 0 2.06.484 2.5 2.75 2.502l2.75.002-.307-12.502-.307-12.502h-3.435c-3.389 0-3.518.164-9.443 11.985M288 833c0 1.273.667 2 1.833 2 1.009 0 2.073.239 2.366.532.456.456-2.178 13.442-3.797 18.718-.425 1.385.062 1.75 2.336 1.75 2.818 0 2.92-.196 5.318-10.25 2.236-9.378 2.657-10.28 4.944-10.601 2.35-.33 3.95-1.694 3.985-3.399.008-.413-3.81-.75-8.485-.75-7.833 0-8.5.157-8.5 2m17.082 8.25a1882.376 1882.376 0 0 1-2.774 12.5c-.509 2.182-.295 2.25 7.084 2.25 6.941 0 7.608-.175 7.608-2 0-1.711-.667-2-4.607-2-3.79 0-4.499-.28-4-1.582.334-.87.607-2.22.607-3 0-.986 1.209-1.418 3.965-1.418 2.896 0 4.244-.521 5-1.934 1.546-2.89 1.376-3.066-2.965-3.066-4.071 0-4.749-.883-3.393-4.418.423-1.102 1.907-1.582 4.893-1.582 3.85 0 5.5-1.075 5.5-3.582 0-.23-3.301-.418-7.335-.418h-7.334l-2.249 10.25m67.456-9c-.22.688-.577 6.313-.794 12.5L371.35 856h3.094c2.929 0 3.247-.4 5.957-7.5 1.575-4.125 2.995-7.5 3.154-7.5.16 0 .036 3.375-.276 7.5l-.568 7.5h3.002c3.229 0 2.334 1.627 12.003-21.821 1.366-3.311 1.362-3.319-1.38-3-2.415.282-3.094 1.227-5.592 7.788-1.564 4.106-3.006 7.629-3.205 7.827-.198.198-.111-3.274.193-7.717l.554-8.077h-2.569c-2.269 0-2.934.905-5.692 7.75l-3.123 7.75.472-7.75c.468-7.69.453-7.75-1.982-7.75-1.35 0-2.635.563-2.854 1.25m34.699 11.25L401.01 856h2.835c2.053 0 3.148-.689 3.973-2.5.849-1.864 1.908-2.5 4.161-2.5 2.556 0 3.021.385 3.021 2.5 0 2.137.457 2.5 3.145 2.5h3.144l-.637-6.75c-.351-3.712-.641-9.337-.645-12.5L420 831h-3.269c-3.184 0-3.427.32-9.494 12.5m28.395-1.25c-3.223 13.687-3.224 13.75-.199 13.75 2.478 0 2.831-.586 4.072-6.75.578-2.875 1.034-3.25 3.94-3.25 4.403 0 8.325-3.255 9.137-7.583 1-5.333-1.415-7.417-8.596-7.417h-5.705l-2.649 11.25m51.779-7.75c-.345 1.375-1.254 2.5-2.019 2.5-.766 0-1.392.9-1.392 2s.374 2 .831 2c.456 0 .239 2.813-.483 6.25-1.597 7.597-1.26 8.75 2.562 8.75 3.259 0 5.079-1.771 3.086-3.002-.868-.537-1.047-1.978-.575-4.638 1.074-6.047 1.616-7.36 3.039-7.36.729 0 1.599-.712 1.933-1.582.859-2.238.791-2.418-.912-2.418-1.121 0-1.355-.655-.892-2.5.549-2.185.301-2.5-1.962-2.5-1.928 0-2.749.639-3.216 2.5m-133.911.454c-3.867 1.599-9.708 10.172-8.056 11.823.275.275.994-.799 1.598-2.386 2.201-5.79 7.396-9.298 10.951-7.395 2.893 1.548 5.881.116 3.456-1.657-2.04-1.492-4.934-1.632-7.949-.385m88.718 3.231c-.665 2.528-.546 3.394.503 3.648 2.093.506 4.412-1.903 4.077-4.235-.511-3.559-3.593-3.163-4.58.587m14.023 1.065c-4.91 5.241-5.94 15.153-1.741 16.75 7.24 2.753 13.5-3.483 13.5-13.449 0-5.865-7.409-7.944-11.759-3.301m16.264.057C468.28 857.692 468.386 856 471.461 856c2.066 0 2.629-.683 3.503-4.25 1.995-8.142 2.52-9.156 5.045-9.748 1.526-.358 2.61-1.402 2.798-2.697.476-3.274-9.549-3.272-10.302.002m25.067.03c-2.81 2.81-5.051 11.9-3.601 14.609 2.209 4.127 9.628 3.144 12.799-1.696 1.401-2.138 1.342-2.25-1.179-2.25-1.46 0-2.913.675-3.229 1.5-.935 2.435-3.362 1.752-3.362-.945 0-2.203.465-2.476 4.691-2.75 4.363-.284 4.75-.533 5.531-3.563 1.808-7.02-6.174-10.381-11.65-4.905m14.499 6.821c-1.139 4.946-2.071 9.214-2.071 9.484 0 .27 1.191.348 2.647.174 2.356-.281 2.822-1.025 4.25-6.782 1.33-5.365 2.01-6.56 3.996-7.02 1.316-.304 2.742-1.498 3.169-2.653.727-1.964.433-2.102-4.572-2.147l-5.349-.049-2.07 8.993m-236.386-4.624c-2.109 4.424-2.106 4.466.315 4.466 1.667 0 2-.667 2-4 0-4.89-.187-4.928-2.315-.466m86.385.329c-2.632 5.159-2.682 7.001-.127 4.688 1.925-1.741 3.734-7.207 2.722-8.219-.289-.289-1.457 1.3-2.595 3.531m50.754.147c-1.598 3.806-1.591 3.99.145 3.99 1.394 0 1.91-.938 2.202-4 .483-5.06-.219-5.057-2.347.01m46.843.133c-2.202 3.417-3.134 9.451-1.605 10.395 1.709 1.056 3.648-1.862 4.47-6.726.848-5.018-.71-7.012-2.865-3.669m41.436-.335c-1.263 2.359-.625 3.141 2.003 2.454 1.107-.289 1.858-1.203 1.692-2.058-.454-2.34-2.536-2.563-3.695-.396m-148.532.763c-2.161 2.162-1.971 4.429.372 4.429 2.072 0 5.321-3.764 4.456-5.163-.819-1.326-3.116-.977-4.828.734m-3.9 9.179c2.043 1.492 8.953 1.668 9.829.25.34-.55-.196-1.031-1.191-1.068-.995-.037-3.731-.15-6.08-.25-3.639-.155-4.017.003-2.558 1.068m45.798-.25-.938 3c-.341 1.092.307 1.5 2.384 1.5 2.692 0 4.96-3.792 3.275-5.476-1.108-1.108-4.275-.453-4.721.976m30 0-.938 3c-.814 2.608 4.389 1.883 5.384-.75.468-1.237.651-2.587.409-3-.791-1.343-4.374-.79-4.855.75" fill-rule="evenodd"/><path fill="#0e4d9a" stroke="#0e4d9a" d="m240.626 244.241-7.564 8.259 3.219 3.118c3.622 3.509 806.165 743.845 809.476 746.733 2.105 1.835 2.176 1.793 8.433-4.891 3.471-3.707 6.866-7.532 7.545-8.499 1.101-1.565-42.998-42.565-403.432-375.077C435.736 408.558 252.41 239.533 250.912 238.272l-2.723-2.291-7.563 8.26M678.5 423v96H1089V327H678.5v96m31.931-56.681c-.283.737-.383 5.354-.222 10.26l.291 8.921 17.5.5 17.5.5.26 46.41c.181 32.239.6 46.819 1.373 47.75 1.474 1.776 20.91 1.897 22.667.14.899-.899 1.2-12.933 1.2-48V386h16.878c20.199 0 19.313.546 18.912-11.651l-.29-8.849-47.778-.26c-39.171-.213-47.87-.018-48.291 1.079m111.039-.097c-.269.703-.372 26.928-.23 58.278l.26 57 10.354.286c6.776.187 10.836-.114 11.75-.872 1.138-.945 1.407-6.993 1.454-32.786l.059-31.628 4.42 12c2.431 6.6 7.692 21.225 11.692 32.5l7.271 20.5 10.196.284c9.737.272 10.252.182 11.421-2 1.057-1.973 11.813-31.941 19.574-54.534 1.369-3.988 2.787-7.25 3.149-7.251.363 0 .535 13.776.381 30.614-.2 21.985.046 31.004.873 32 1.51 1.82 20.913 1.98 22.706.187 1.732-1.732 1.732-112.868 0-114.6-1.71-1.71-26.207-1.666-27.491.05-1.114 1.488-3.824 8.659-13.134 34.75l-11.686 32.75c-2.601 7.288-5.029 13.25-5.396 13.25s-2.128-4.387-3.913-9.75c-1.785-5.363-8.293-23.7-14.463-40.75l-11.217-31-13.771-.278c-10.463-.212-13.887.028-14.259 1m136.137.36c-.978 2.547-.657 72.295.365 79.366 2.897 20.045 14.401 32.48 33.865 36.605 23.387 4.957 45.419-3.42 54.16-20.593 4.72-9.273 5.12-14.025 4.799-56.96l-.296-39.5h-23l-.5 41c-.542 44.463-.466 43.857-6.367 50.345-7.364 8.096-24.279 7.933-32.228-.31-6.167-6.395-6.405-8.288-6.405-50.896 0-20.611-.273-38.187-.607-39.057-.504-1.313-2.524-1.582-11.893-1.582s-11.389.269-11.893 1.582M185.75 676.294C156.799 745.865 158.277 742 160.617 742c1.131 0 1.457.608 1.087 2.026-.517 1.976-.166 2.019 14.602 1.75l15.131-.276 3.912-11.25 3.912-11.25h21.46l-.497 9.5c-.351 6.718-.164 9.5.64 9.5.625 0 1.136.9 1.136 2 0 1.913.667 2 15.364 2h15.365l-.476-64.25c-.262-35.337-.876-64.678-1.365-65.2-.488-.522-.888-1.76-.888-2.75 0-1.67-1.359-1.8-18.75-1.794l-18.75.006-26.75 64.282M521 622.413c-27.712 9.508-44.983 16.067-74 28.102-88.306 36.624-170.142 86.443-226.251 137.735-4.663 4.263-8.877 7.742-9.364 7.733-.487-.009-4.26-2.729-8.385-6.044-26.545-21.332-61.116-38.152-81.405-39.606-7.191-.515-7.927-.412-6.595.918.825.824 8.7 8.137 17.5 16.251 41.406 38.179 61.669 61.607 71.294 82.432l3.437 7.434 8.538-9.434c13.319-14.717 54.295-55.257 69.231-68.494 22.934-20.326 60.767-51.007 61.72-50.053.23.23-4.112 20.951-9.651 46.045C325.552 827.62 326.586 822 328.5 822c.825 0 1.5.686 1.5 1.525 0 1.315 2.177 1.488 15.719 1.25l15.72-.275.837-4.5c1.023-5.494 7.819-37.444 11.169-52.5 1.346-6.05 4.505-20.675 7.021-32.5 4.438-20.855 8.039-35.921 8.707-36.428 3.168-2.404 9.922-6.572 10.65-6.572.532 0-.084 4.812-1.377 10.75a15633.88 15633.88 0 0 0-4.928 22.75c-1.423 6.6-5.065 23.25-8.094 37-14.55 66.052-12.925 57.5-10.924 57.5.836 0 1.5.89 1.5 2.012 0 1.985.505 2.009 36.681 1.75l36.681-.262 2.773-11.5c3.003-12.457 3.416-16 1.865-16-.55 0-1-.9-1-2 0-1.932-.667-2-19.545-2h-19.546l.61-3.25c.336-1.788 1.37-6.85 2.298-11.25l1.687-8 19.493-.5 19.494-.5 2.692-12.435c2.439-11.261 2.543-12.545 1.102-13.599-.875-.639-1.27-1.681-.879-2.314.527-.853-3.854-1.152-16.847-1.152-20.18 0-18.49 1.24-15.68-11.5l1.764-8 20.575-.27 20.575-.27.703-2.73c3.539-13.752 5.177-24.141 3.884-24.638-.759-.291-1.38-1.218-1.38-2.061 0-1.344-4.124-1.535-33.75-1.564l-33.75-.034 2.5-2.083c12.839-10.7 76.892-44.853 116-61.851 24.178-10.51 23.172-10.909-4-1.586m-298.084 33.198C219.911 663.225 210 692.382 210 693.609c0 1.863 11.869 1.997 12.461.141.694-2.177 2.673-39.949 2.122-40.5-.29-.29-1.04.773-1.667 2.361m296.901 30.504c-26.94 3.473-39.878 22.146-50.5 72.885-7.83 37.402-4.65 54.779 11.475 62.697 9.048 4.443 33.606 4.273 43.255-.3 14.831-7.027 23.248-19.365 28.535-41.822 1.421-6.035 1.574-8.023.642-8.334-.673-.224-1.224-1.27-1.224-2.324 0-1.806-.888-1.917-15.303-1.917h-15.303l-2.243 9.302c-4.362 18.093-11.432 27.241-17.724 22.933-3.367-2.306-1.676-17.054 5.476-47.735 7.463-32.02 11.161-39.5 19.528-39.5 5.392 0 5.59 1.985 1.98 19.75-.53 2.604-.338 3.25.964 3.25.965 0 1.625.823 1.625 2.027 0 1.956.511 2.017 14.714 1.75l14.715-.277 1.744-7.5c5.849-25.142-3.41-41.874-24.888-44.979-7.64-1.105-8.195-1.102-17.468.094M99.489 702.987c-20.948 2.926-33.83 15.797-39.547 39.513-4.838 20.074 1.582 33.016 21.341 43.02C95.221 792.576 97 794.168 97 799.583c0 9.784-5.948 16.731-13.885 16.216L78.5 815.5v-6.75c0-5.041-.346-6.75-1.367-6.75-.874 0-1.178-.72-.843-2 .759-2.902-29.605-3.148-30.794-.25-1.409 3.431-1.785 19.843-.542 23.611 4.058 12.294 13.414 17.641 32.207 18.405 30.529 1.241 49.271-11.295 55.335-37.012 5.217-22.129-1.293-35.838-21.996-46.317-16.062-8.131-17.999-10.244-16.307-17.791 1.734-7.735 9.292-13.896 14.873-12.125 1.889.599 2.064 1.295 1.765 7.023-.288 5.54-.089 6.421 1.549 6.847 1.212.316 1.667 1.044 1.281 2.049-.525 1.369 1.172 1.56 13.851 1.56h14.45l.769-2.75c.423-1.513.769-6.8.769-11.75 0-21.789-16.344-32.378-44.011-28.513m153.434 130.936c-4.535 4.535-3.921 8.518 1.764 11.43 4.049 2.075 4.666 3.119 3.324 5.626-1.473 2.752-6.011 2.768-6.011.021 0-1.467-.667-2-2.5-2-1.942 0-2.5.513-2.5 2.3 0 8.524 15.893 5.344 16.327-3.267.155-3.075-.275-3.688-4.077-5.81-4.445-2.481-5.414-5.012-2.763-7.212 1.816-1.507 4.513-.636 4.513 1.458 0 1.909 3.594 2.031 4.318.146 2.102-5.48-7.518-7.569-12.395-2.692m17.314 9.577c-6.163 12.372-6.201 12.5-3.71 12.5 1.713 0 2.879-.797 3.655-2.5.916-2.011 1.863-2.5 4.84-2.5 3.408 0 3.663.198 3.223 2.5-.412 2.151-.113 2.5 2.138 2.5 2.994 0 3.158-1.4 1.963-16.75-.628-8.071-.699-8.25-3.263-8.25-2.355 0-3.25 1.264-8.846 12.5m18.43-11.833c-1.518 1.518-.52 3.333 1.833 3.333 3.025 0 3.05.528.5 10.5-2.473 9.668-2.478 10.5-.067 10.5 2.08 0 2.092-.028 4.548-10.5 2.447-10.432 2.407-10.352 5.308-10.688 1.61-.187 2.827-1.016 3.026-2.062.292-1.539-.561-1.75-7.075-1.75-4.074 0-7.707.3-8.073.667m18.745 2.083c-1.157 5.082-4.505 18.733-5.029 20.5-.691 2.334 13.048 2.676 13.941.348.782-2.039-.184-2.598-4.491-2.598-3.965 0-4.33-.542-3.203-4.75.509-1.899 1.286-2.25 4.987-2.25 3.716 0 4.383-.304 4.383-2 0-1.659-.667-2-3.914-2-3.779 0-3.888-.094-3.183-2.75.627-2.361 1.356-2.821 5.155-3.25 3.171-.358 4.518-.996 4.756-2.25.289-1.522-.52-1.75-6.222-1.75-6.331 0-6.575.093-7.18 2.75m20.299-.737c-4.55 3.579-8.186 18.369-5.24 21.315 4.357 4.357 14.529-.028 14.529-6.262 0-2.276-3.588-.898-5.246 2.014-4.491 7.891-7.389-3.019-3.122-11.755 2.158-4.42 5.657-5.31 6.188-1.575.498 3.511 4.18 3.027 4.18-.55 0-5.373-6.262-7.141-11.289-3.187m24.29-.89c-7.77 3.099-12.412 13.003-9.044 19.296 2.605 4.867 10.344 5.998 17.18 2.511 5.288-2.698 4.34-3.511-1.702-1.46-9.776 3.32-16.338-2.955-11.955-11.431 4.844-9.367 18.52-9.686 18.52-.433 0 3.409-2.456 7.394-4.557 7.394-1.872 0-1.834-.314.627-5.137 2.439-4.781 2.29-5.031-3.295-5.511-4.89-.42-9.232 2.638-10.411 7.332-1.977 7.878 12.473 8.424 18.548.701 6.721-8.544-2.853-17.671-13.911-13.262m20.649 8.031c-1.107 15.594-1.054 16.028 1.931 15.662 2.195-.269 3.01-1.418 5.434-7.667 3.864-9.955 4.306-9.996 3.77-.348l-.46 8.3 2.557-.3c2.216-.261 3.111-1.634 6.717-10.301 5.809-13.961 5.943-14.5 3.601-14.5-1.509 0-2.639 1.868-5.143 8.5-1.764 4.675-3.465 8.5-3.78 8.5-.315 0-.278-3.825.081-8.5.617-8.025.543-8.5-1.326-8.5-2.204 0-3.863 2.752-6.473 10.738-2.667 8.162-3.66 7.424-2.922-2.172.623-8.116.553-8.566-1.34-8.566-1.804 0-2.06.887-2.647 9.154m38.174-2.904c-4.121 8.038-8.824 17.813-8.824 18.34 0 1.659 4.256-.057 5.182-2.09.927-2.035 1.853-2.5 4.979-2.5 3.428 0 3.839.267 3.839 2.5 0 1.833.533 2.5 2 2.5 1.858 0 2-.667 2-9.375 0-12.865-.638-15.625-3.611-15.625-1.887 0-3.003 1.253-5.565 6.25m27.713-5c-.22.688-1.353 5.525-2.519 10.75-1.166 5.225-2.364 10.324-2.662 11.332-.431 1.456-.071 1.763 1.757 1.5 1.805-.261 2.534-1.301 3.387-4.832.886-3.668 1.541-4.555 3.544-4.797 6.791-.819 9.956-4.067 9.956-10.215 0-1.861-.7-3.292-1.934-3.953-2.753-1.473-11.038-1.318-11.529.215M488 833.845c0 1.015-.911 2.669-2.024 3.676-1.473 1.334-1.694 2.035-.811 2.581.946.585.951 1.883.024 5.9-1.957 8.476-1.681 9.998 1.811 9.998 2.993 0 4.187-2.148 1.959-3.525-.572-.354-.824-1.393-.559-2.309.264-.916.975-3.579 1.579-5.916.662-2.56 1.679-4.25 2.56-4.25.803 0 1.461-.675 1.461-1.5s-.45-1.5-1-1.5-1-1.125-1-2.5c0-1.833-.533-2.5-2-2.5-1.277 0-2 .667-2 1.845m-46.387 4.343c-.781 3.9.443 5.388 3.212 3.906 4.11-2.2 3.931-7.094-.259-7.094-1.804 0-2.457.705-2.953 3.188m-166.004 2.832c-2.13 5.322-2.035 6.18.641 5.8 1.92-.273 2.295-1.017 2.555-5.07.372-5.807-1.036-6.128-3.196-.73m137.141.244c-2.25 5.473-2.208 5.94.5 5.556 1.92-.273 2.295-1.017 2.555-5.07.377-5.886-.76-6.067-3.055-.486m45-3.184c-3.712 2.162-6.724 12.232-4.758 15.906 1.583 2.956 7.95 2.769 10.852-.319 2.957-3.148 5.04-12.897 3.223-15.086-1.472-1.774-6.653-2.052-9.317-.501m15.836-.22c-.281.456-1.379 4.723-2.44 9.484L469.217 856h2.261c1.965 0 2.416-.783 3.437-5.974 1.174-5.966 3.055-9.026 5.549-9.026 1.425 0 2.95-2.92 2.014-3.855-.313-.313-1.509.018-2.657.735-1.149.717-2.366.925-2.705.462-.868-1.186-2.921-1.466-3.53-.482m24.951 1.39c-3.312 2.895-5.644 12.711-3.604 15.169 2.734 3.295 12.067.65 12.067-3.419 0-1.774-3.48-1.062-4.75.972-1.725 2.761-4.445 1.519-4.054-1.85.274-2.359.805-2.672 5.304-3.122 4.812-.481 5.012-.625 5.318-3.815.595-6.202-5.165-8.406-10.281-3.935m15.945-.921c-.216.644-1.25 4.883-2.297 9.421l-1.903 8.25h2.2c1.865 0 2.393-.876 3.466-5.75 1.284-5.833 3.353-9.25 5.6-9.25 1.253 0 2.868-2.918 2.061-3.724-.241-.241-1.317.033-2.392.608s-2.251.748-2.614.385c-1.179-1.178-3.716-1.141-4.121.06m-162.444 4.35c-1.82 2.313-1.914 2.874-.69 4.098 1.768 1.767 5.2.223 6.149-2.767 1.428-4.5-2.26-5.399-5.459-1.331m107.137-1.39c-.589.71-1.518 3.282-2.065 5.717-2.024 9.006 3.54 8.414 5.814-.619 1.478-5.868-.678-8.799-3.749-5.098m41.432.293c-1.052 2.742-.678 3.418 1.893 3.418 2 0 2.5-.5 2.5-2.5 0-2.876-3.371-3.581-4.393-.918m-106 11c-1.004 2.617-.703 3.418 1.286 3.418 1.735 0 3.107-1.803 3.107-4.082 0-1.572-3.753-1.005-4.393.664m30 0c-1.014 2.643-.698 3.418 1.393 3.418 1.1 0 2-.413 2-.918 0-.505.273-1.63.607-2.5.429-1.118.02-1.582-1.393-1.582-1.1 0-2.273.712-2.607 1.582" fill-rule="evenodd"/><path fill="#2c368b" stroke="#2c368b" d="m240.846 244.28-7.573 8.276L640.386 628.33l407.114 375.774 7.76-8.275 7.76-8.275-3.26-3.146c-1.793-1.73-183.485-169.32-403.76-372.422-220.275-203.103-402.093-370.785-404.04-372.629l-3.54-3.353-7.574 8.276m508.404 83.47c38.912.145 102.587.145 141.5 0 38.912-.145 7.075-.264-70.75-.264s-109.663.119-70.75.264m332.563-.067c.721.289 1.584.253 1.916-.079.332-.332-.258-.568-1.312-.525-1.165.048-1.402.285-.604.604M679.476 415.5c0 43.45.123 61.079.274 39.176.15-21.904.15-57.454 0-79-.151-21.547-.274-3.626-.274 39.824m146.337-51.817c.721.289 1.584.253 1.916-.079.332-.332-.258-.568-1.312-.525-1.165.048-1.402.285-.604.604m18.937-.021c.688.278 1.813.278 2.5 0 .688-.277.125-.504-1.25-.504s-1.937.227-1.25.504m67.063.021c.721.289 1.584.253 1.916-.079.332-.332-.258-.568-1.312-.525-1.165.048-1.402.285-.604.604m138.187.258c0 .518.445 1.216.989 1.552.566.35.734-.051.393-.941-.665-1.732-1.382-2.049-1.382-.611m-341 1.118c0 .582.45.781 1 .441s1-.816 1-1.059-.45-.441-1-.441-1 .477-1 1.059M849.642 365c.629.825 1.364 2.4 1.634 3.5.467 1.9.498 1.893.608-.128.064-1.17-.672-2.745-1.634-3.5-1.522-1.193-1.601-1.177-.608.128m132.601 40.576c.231 36.798.435 41.277 2.022 44.424.97 1.925 1.502 2.6 1.181 1.5-2.035-6.971-2.482-15.977-2.421-48.87.037-20.279-.181-37.12-.486-37.424-.304-.304-.437 17.862-.296 40.37m-75.164-37.993c.048 1.165.285 1.402.604.605.289-.722.253-1.585-.079-1.917-.332-.332-.568.258-.525 1.312m31.163 55.617c-.225 53.749-.362 57.77-1.992 58.72-.962.561-1.3 1.026-.75 1.034 3.495.053 3.522-.44 3.25-59.518l-.267-57.936-.241 57.7m18.212-17.7c-.001 20.9.132 29.592.294 19.316.163-10.276.163-27.376.001-38-.162-10.624-.295-2.216-.295 18.684m69.998-.5c0 20.075.133 28.288.297 18.25.163-10.037.163-26.462 0-36.5-.164-10.037-.297-1.825-.297 18.25M905.22 372.02c-1.723 2.759-5.516 14.017-4.923 14.611.275.274 1.281-1.893 2.237-4.816.955-2.923 2.384-6.594 3.175-8.158 1.661-3.283 1.298-4.499-.489-1.637m-53.189-.52c0 .55.436 1.675.969 2.5.533.825.969 1.05.969.5s-.436-1.675-.969-2.5c-.533-.825-.969-1.05-.969-.5m48.048 5.083c.048 1.165.285 1.402.604.605.289-.722.253-1.585-.079-1.917-.332-.332-.568.258-.525 1.312m-45.993-.083c.104 1.894 1.77 5.084 1.828 3.5.031-.825-.381-2.175-.914-3-.533-.825-.945-1.05-.914-.5m1.945 6c0 .55.436 1.675.969 2.5.533.825.969 1.05.969.5s-.436-1.675-.969-2.5c-.533-.825-.969-1.05-.969-.5m-112.164 5.84c.771.928 1.195 15.135 1.383 46.25l.271 44.91.24-46.25c.217-42.094.093-46.25-1.383-46.25-1.243 0-1.363.314-.511 1.34m27.357 44.91c.123 25.438.347 38.825.497 29.75.698-42.288.711-76.001.029-76.001-.413.001-.649 20.814-.526 46.251M858.573 389c.368 1.375 1.086 3.175 1.596 4 .644 1.042.723.737.258-1-.368-1.375-1.086-3.175-1.596-4-.644-1.042-.723-.737-.258 1m39.051 4.539c-.343.893-.595 2.15-.561 2.793.035.642.495.09 1.022-1.227.527-1.318.779-2.574.56-2.793-.219-.219-.679.333-1.021 1.227m-2.927 7.396c-.933 1.58-1.677 3.479-1.653 4.219.025.74.957-.384 2.072-2.498 2.386-4.522 2.05-5.9-.419-1.721m-31.178 1.764c1.568 3.754 2.481 5.202 2.481 3.936 0-1.27-2.887-7.635-3.462-7.635-.311 0 .131 1.664.981 3.699m27.56 8.884c.048 1.165.285 1.402.604.605.289-.722.253-1.585-.079-1.917-.332-.332-.568.258-.525 1.312m-1.515 4.124c-.542 1.425-.428 1.54.56.56.684-.679.991-1.486.683-1.793-.308-.308-.867.247-1.243 1.233m-44.535 32.866c-.04 16.943.151 30.58.425 30.306.656-.655.803-59.955.151-60.607-.276-.277-.536 13.359-.576 30.301m43.05-28.99c.048 1.165.285 1.402.604.605.289-.722.253-1.585-.079-1.917-.332-.332-.568.258-.525 1.312m23.914-.333c-.004.688-1.598 5.468-3.543 10.622-1.944 5.155-3.326 9.88-3.071 10.5.254.621.499.314.542-.681.043-.995.482-1.56.974-1.256.493.305 1.116-1.131 1.386-3.191.81-6.197 3.418-12.313 3.934-9.224.227 1.364.472.117.542-2.77.071-2.887-.071-5.25-.314-5.25-.244 0-.446.563-.45 1.25M886 425c-.698 1.685-1.036 3.298-.75 3.583.285.286 1.023-.927 1.639-2.694.616-1.767.954-3.38.75-3.583-.203-.204-.941 1.009-1.639 2.694m-1.921 5.668c-.043.643-.338 1.993-.655 3-.547 1.741-.518 1.744.571.044.631-.983.925-2.333.655-3-.355-.875-.514-.887-.571-.044m27.92 24.631.498 25.201.27-24.432c.148-13.437-.076-24.778-.499-25.201-.422-.424-.544 10.571-.269 24.432m-31.654-13.756c-.326.849-.369 1.767-.096 2.04.274.273.737-.422 1.03-1.543.624-2.383-.069-2.751-.934-.497m28.85.957c.02 1.65.244 2.204.498 1.231.254-.973.237-2.323-.037-3-.274-.677-.481.119-.461 1.769m-6.084 2.611c-.616 1.767-.954 3.38-.75 3.583.203.204.941-1.009 1.639-2.694.698-1.685 1.036-3.298.75-3.583-.285-.286-1.023.927-1.639 2.694m148.121-.111c0 1.925.206 2.712.457 1.75.252-.962.252-2.538 0-3.5-.251-.962-.457-.175-.457 1.75m-26.074 0c0 1.375.227 1.938.504 1.25.278-.687.278-1.812 0-2.5-.277-.687-.504-.125-.504 1.25m-67.963 4.5c.02 1.65.244 2.204.498 1.231.254-.973.237-2.323-.037-3-.274-.677-.481.119-.461 1.769m-56.624 3.071c-.367 1.466-.475 2.858-.24 3.094.236.235.73-.771 1.098-2.236.367-1.466.475-2.858.24-3.094-.236-.235-.73.771-1.098 2.236m149.139.429c-.287 1.1-.115 2 .384 2 .498 0 .906-.9.906-2s-.173-2-.383-2c-.211 0-.619.9-.907 2m-30.838 3.75c-1.243 1.586-1.208 1.621.378.378 1.666-1.307 2.195-2.128 1.372-2.128-.207 0-.995.788-1.75 1.75m-59.841-.25c0 .55.436 1.675.969 2.5.533.825.969 1.05.969.5s-.436-1.675-.969-2.5c-.533-.825-.969-1.05-.969-.5m-60.952 2.168c-.043.643-.338 1.993-.655 3-.547 1.741-.518 1.744.571.044.631-.983.925-2.333.655-3-.355-.875-.514-.887-.571-.044m95.53 1.341c.585.585 2.825 1.258 4.977 1.496 2.153.238 3.014.195 1.914-.094-1.1-.29-3.34-.963-4.977-1.496-2.103-.685-2.665-.657-1.914.094m14.891.991-4 .716 3.5.127c1.925.069 4.175-.31 5-.843 1.636-1.057 1.406-1.057-4.5 0m-46.936 1.293c.376.986.935 1.541 1.243 1.233.308-.307.001-1.114-.683-1.793-.988-.98-1.102-.865-.56.56M963 466c0 .55.477 1 1.059 1s.781-.45.441-1-.816-1-1.059-1-.441.45-.441 1m-68.4 3.6c-.356.927-.422 1.911-.147 2.186.275.275.791-.259 1.147-1.186.356-.927.422-1.911.147-2.186-.275-.275-.791.259-1.147 1.186m70.4-.707c0 .491.739 1.176 1.641 1.523 1.373.527 1.435.38.378-.893-1.44-1.735-2.019-1.916-2.019-.63m82.564.814c-.542 1.425-.428 1.54.56.56.684-.679.991-1.486.683-1.793-.308-.308-.867.247-1.243 1.233m-12.064 5.826c-1.65 1.352-2.579 2.459-2.064 2.462.514.003 2-.996 3.302-2.219 2.023-1.9 2.516-2.009 3.391-.75.855 1.231.959 1.237.635.037-.62-2.291-2.048-2.164-5.264.47m-62.983.495c.894 1.447 13.084 6.984 15.191 6.902.986-.039.104-.691-1.96-1.449-2.063-.758-6.023-2.518-8.798-3.912-2.776-1.395-4.771-2.088-4.433-1.541m65.483.865c0 .491.739 1.176 1.641 1.523 1.373.527 1.435.38.378-.893-1.44-1.735-2.019-1.916-2.019-.63m-9.559 2.575c-1.067.808-1.491 1.468-.941 1.468.55 0 1.874-.66 2.941-1.468 1.068-.807 1.491-1.468.941-1.468-.55 0-1.873.661-2.941 1.468m-282.195 1.966c2.511 2.858 25.754 2.224 25.754-.701 0-.806-.346-.787-1.2.067-1.487 1.487-22.84 1.664-24.604.204-.781-.647-.764-.496.05.43m74.16-.209c.53 2.636 25.594 2.201 25.594-.444 0-.897-.288-.893-1.2.019-1.519 1.519-23.396 1.678-24.142.175-.279-.564-.393-.451-.252.25m26.466 1.525c-1.243 1.586-1.208 1.621.378.378 1.666-1.307 2.195-2.128 1.372-2.128-.207 0-.995.788-1.75 1.75M889 482c-.901.582-1.025.975-.309.985.655.008 1.469-.435 1.809-.985.767-1.242.421-1.242-1.5 0m24.796.184c.936.909 20.209 1.51 20.206.63-.001-.377-4.706-.827-10.456-1-5.75-.173-10.138-.006-9.75.37M1021.5 482c-1.261.542-1.445.859-.5.859.825 0 2.4-.386 3.5-.859 1.261-.542 1.445-.859.5-.859-.825 0-2.4.386-3.5.859m-151.502.75c-.001.413 2.812.624 6.25.47 10.627-.475 11.651-.913 2.502-1.07-4.812-.083-8.751.187-8.752.6M982.5 484c1.1.473 2.675.859 3.5.859.945 0 .761-.317-.5-.859-1.1-.473-2.675-.859-3.5-.859-.945 0-.761.317.5.859m9.699.15c2.93.828 20.359.815 24.251-.018 1.622-.348-3.688-.632-11.801-.632s-13.715.293-12.45.65m-233.449 1.556c1.237.238 3.263.238 4.5 0 1.237-.239.225-.434-2.25-.434s-3.487.195-2.25.434m72 0c1.237.238 3.263.238 4.5 0 1.237-.239.225-.434-2.25-.434s-3.487.195-2.25.434M872 486c-1.828 1.181-.249 1.181 2.5 0 1.319-.567 1.489-.878.5-.914-.825-.031-2.175.381-3 .914m11-.617c0 .211.901.619 2.001.907 1.101.288 1.75.115 1.441-.383-.538-.871-3.442-1.313-3.442-.524m46.813.3c.721.289 1.584.253 1.916-.079.332-.332-.258-.568-1.312-.525-1.165.048-1.402.285-.604.604m89.937-.021c.688.278 1.813.278 2.5 0 .688-.277.125-.504-1.25-.504s-1.937.227-1.25.504M679.252 506.5c.011 2.2.216 2.982.455 1.738.239-1.244.23-3.044-.02-4s-.446.062-.435 2.262m102.078 12.25c56.556.143 148.806.143 205 0 56.193-.143 9.92-.26-102.83-.26s-158.727.117-102.17.26m-570.948 100c-3.993 9.157-7.033 16.331-9.427 22.25-2.817 6.96-8.78 21.278-12.911 31-1.754 4.125-5.592 13.35-8.53 20.5-2.938 7.15-8.728 21.224-12.867 31.276l-7.525 18.275 15.189-.275 15.189-.276 3.522-10.5 3.523-10.5 12.379-.282 12.379-.282-.582 11.032-.582 11.032h30.741l-.491-61.25c-.27-33.687-.713-62.712-.985-64.5l-.495-3.25h-36.02l-2.507 5.75M534 619c-.825.533-1.05.969-.5.969s1.675-.436 2.5-.969c.825-.533 1.05-.969.5-.969s-1.675.436-2.5.969m-14.5 6.072c-2.2 1.058-2.875 1.643-1.5 1.301 2.831-.705 8.03-3.311 6.5-3.259-.55.019-2.8.9-5 1.958m-11 4.467c-1.65.777-12 5.623-23 10.77-95.492 44.682-197.334 119.236-271.564 198.801l-9.899 10.61 1.761 3.619 1.76 3.618 6.943-8.228C235.762 823.531 296.818 766.631 330 741.09c16.747-12.89 18.668-14.016 17.65-10.34-.931 3.367-6.466 27.897-10.097 44.75-2.014 9.35-5.075 23.219-6.803 30.82-2.681 11.8-2.929 13.955-1.695 14.735.795.503 7.767.921 15.494.93l14.049.015 2.177-9.75c1.198-5.362 5.575-25.275 9.728-44.25 13.214-60.385 14.43-65.173 17.343-68.291 3.314-3.548 12.024-9.172 12.88-8.317.599.599-3.568 21.104-10.791 53.108-7.708 34.15-8.835 39.238-9.41 42.5-.339 1.925-2.031 9.721-3.76 17.324-2.679 11.779-2.931 13.96-1.704 14.742.823.525 16.636.814 36.935.676l35.496-.242 2.623-13 2.623-13-20.288-.5c-11.159-.275-20.609-.822-21.001-1.215-.392-.393.205-4.443 1.327-9 1.121-4.557 2.345-10.198 2.719-12.535l.681-4.25h19.393c19.298 0 19.395-.011 19.886-2.25.271-1.237 1.405-6.223 2.519-11.079 1.114-4.856 2.026-9.918 2.026-11.25V739H422.773l.671-4.474c.369-2.461 1.432-7.523 2.363-11.25l1.693-6.776 20.55-.27 20.551-.269 2.699-12.356c1.485-6.796 2.7-12.862 2.7-13.481 0-.81-9.495-1.124-34-1.124-34.349 0-38.087-.409-32.094-3.513 1.048-.543 7.789-4.587 14.98-8.987 22.282-13.635 47.997-27.656 73.252-39.939 9.549-4.644 16.912-8.442 16.362-8.439-.55.003-2.35.641-4 1.417M224.103 642.25c-6.027 16.01-17.972 51.215-17.527 51.66.956.955 16.424 1.375 16.426.446.002-.471.469-6.931 1.038-14.356 1.143-14.894 1.973-40 1.324-40-.228 0-.795 1.013-1.261 2.25M515 687.447c-23.588 6.009-34.449 22.712-44.571 68.553-7.737 35.039-5.573 55.842 6.443 61.919 11.383 5.757 34.992 5.272 47.227-.969 13.024-6.645 26.797-30.312 26.886-46.2L551 768h-29.715l-1.62 8.074c-3.11 15.509-8.467 23.926-15.227 23.926-8.292 0-9.145-6.977-3.98-32.547 9.18-45.442 13.544-57.064 22.108-58.881 7.583-1.608 10.552 6.884 7.03 20.112-1.739 6.533-2.265 6.316 15.316 6.316h13.748l1.677-8.75c3.939-20.559.277-30.875-13.141-37.018-6.994-3.202-23.124-4.096-32.196-1.785M94.166 704.469c-20.055 4.559-33.559 23.031-34.927 47.772-.832 15.068 4.203 22.322 21.712 31.278 13.902 7.111 16.59 9.875 16.425 16.881-.255 10.782-8.11 18.389-16.75 16.221-3.717-.933-5.793-6.348-5.005-13.057l.654-5.564H61.138c-8.326 0-15.147.337-15.158.75-.011.413-.487 3.9-1.058 7.75-3.415 23.032 5.605 31.876 32.578 31.94 28.321.068 43.327-9.169 51.075-31.44 8.13-23.367 2.688-37.802-18.075-47.94-15.786-7.708-20.906-13.671-18.611-21.674 4.612-16.08 21.828-16.385 19.7-.349-.777 5.859-.588 5.93 15.626 5.949 13.514.016 13.11.295 14.211-9.802 1.478-13.555-4.674-25.158-14.926-28.153-6.465-1.888-25.08-2.212-32.334-.562m160.69 128.047c-5.8 3.151-5.655 9.615.279 12.41 3.986 1.877 4.78 4.936 1.946 7.5-2.341 2.12-5.038 1.453-5.793-1.431-.722-2.763-3.288-2.525-3.288.305 0 5.273 6.747 6.467 11.923 2.111 4.75-3.997 4.367-8.526-.923-10.911-3.291-1.484-4-2.302-4-4.617 0-4.031 3.265-5.618 5.977-2.906 2.367 2.367 4.023 2.612 4.023.594 0-4.056-5.34-5.665-10.144-3.055m74.522-.532c-5.543 2.238-9.846 20.625-5.386 23.012 4.579 2.45 9.879.104 11.925-5.279 1.582-4.158-1.241-3.528-3.827.855-2.218 3.759-4.557 4.228-6.41 1.285-1.344-2.134 1.872-14.409 4.45-16.987 2.306-2.306 4.87-1.391 4.87 1.737 0 1.726.557 2.393 2 2.393 1.451 0 2-.667 2-2.429 0-4.656-4.334-6.723-9.622-4.587m21.845 1.135c-4.969 2.459-9.223 8.822-9.223 13.796 0 7.67 9.234 11.462 17 6.982 1.925-1.111 2.6-1.694 1.5-1.297-13.394 4.844-21.43-5.47-11.781-15.119 5.39-5.39 10.987-5.86 15.253-1.28 2.468 2.649 2.582 5.539.347 8.826l-1.681 2.473 2.124-1.854c9.016-7.867-2.126-18.177-13.539-12.527m-77.558 4.631c-8.529 17.75-8.713 18.25-6.721 18.25 1.168 0 2.25-1.117 2.906-3 .93-2.668 1.495-3 5.098-3 3.836 0 4.052.16 4.052 3 0 2.4.429 3 2.142 3 2.028 0 2.108-.331 1.5-6.147-.353-3.38-.642-8.78-.642-12 0-5.737-.055-5.853-2.786-5.853-2.404 0-3.164.787-5.549 5.75M289 833c0 .55.873 1 1.941 1 3.017 0 3.054.87.495 11.456-1.318 5.454-2.2 10.113-1.96 10.354 1.607 1.607 3.533-1.633 5.046-8.49 2.782-12.606 2.863-12.788 5.805-13.136 5.471-.648 2.427-2.184-4.327-2.184-4 0-7 .429-7 1m16.679 10.374c-1.474 6.256-2.679 11.656-2.679 12 0 .344 2.925.626 6.5.626 5.111 0 6.5-.321 6.5-1.5 0-1.115-1.175-1.5-4.579-1.5h-4.58l.695-3.25c.976-4.565 2.218-5.75 6.027-5.75 1.826 0 3.597-.45 3.937-1 .373-.604-.99-1-3.441-1-3.779 0-4.059-.193-4.059-2.8 0-3.78 1.677-5.2 6.141-5.2 2.058 0 4.019-.45 4.359-1 .387-.627-1.763-1-5.762-1h-6.381l-2.678 11.374m67.946-8.249c-.344 1.719-.625 7.152-.625 12.073 0 12.102 2.051 11.969 6.953-.45 4.369-11.065 5.29-11.013 4.439.252-.641 8.496-.57 9 1.276 9 1.796 0 8.051-12.607 10.792-21.75 1.713-5.711-2.216-1.56-4.742 5.012-4.928 12.818-5.887 13.012-4.853.983.642-7.473.543-8.245-1.053-8.245-1.979 0-3.579 2.84-6.339 11.25-1.779 5.419-2.78 6.739-3.791 5-.24-.413-.142-4.237.218-8.5.673-7.98-.946-11.271-2.275-4.625m37.199 3.125c-8.217 16.028-8.887 17.75-6.903 17.75 1.098 0 2.336-1.207 3.079-3 1.079-2.604 1.754-3 5.121-3 3.643 0 3.879.182 3.879 3 0 2.402.428 3 2.147 3 2.065 0 2.122-.292 1.5-7.651-.356-4.208-.647-9.608-.647-12 0-3.966-.219-4.349-2.486-4.349-2.04 0-3.059 1.119-5.69 6.25m25.854 4.191c-3.086 12.135-3.214 13.559-1.217 13.559.882 0 1.893-1.685 2.55-4.25.598-2.337 1.276-4.812 1.507-5.5.231-.687 2.008-1.25 3.951-1.25 4.02 0 7.122-2.522 8.153-6.629 1.074-4.279-.641-5.834-6.798-6.166l-5.469-.294-2.677 10.53M488 834.95c0 1.073-.788 2.415-1.75 2.982-1.287.758-1.43 1.243-.542 1.833.937.621.886 2.336-.226 7.652-1.542 7.369-1.342 8.583 1.41 8.583 2.556 0 3.151-.959 1.869-3.012-1.813-2.902.727-12.584 3.537-13.49 1.97-.635 2.008-.761.366-1.194-1.377-.363-1.685-1.085-1.231-2.894.49-1.951.22-2.41-1.414-2.41-1.335 0-2.019.661-2.019 1.95m-46.453 1.3c-1.287 5.9-1.179 6.25 1.929 6.25 3.217 0 5.448-3.65 4.207-6.883-.975-2.541-5.546-2.069-6.136.633m-166.531 4.448c-2.381 5.382-2.002 7.581 1.23 7.122 1.998-.284 2.288-.973 2.554-6.07.367-7.033-.974-7.406-3.784-1.052m137.216.507c-2.356 5.357-1.949 7.269 1.412 6.629 1.507-.287 1.912-1.433 2.156-6.094.37-7.085-.622-7.234-3.568-.535m-60.287-1.954c-6.154 4.134-5.132 14.06 1.104 10.723 1.647-.881 2.384-.891 2.911-.038.678 1.097 6.04-.128 6.04-1.38 0-.271-.675-.234-1.5.082-1.938.744-1.938-2.249 0-5.638 1.914-3.348 1.848-4.558-.25-4.641-.962-.039-2.45-.374-3.305-.746-.912-.398-2.977.279-5 1.638M459 838.279c-5.019 2.507-8.395 15.588-4.418 17.114 5.926 2.274 11.43-2.465 12.203-10.505.68-7.083-2.105-9.447-7.785-6.609m20.25.395c-1.397.975-2.25 1.145-2.25.448 0-.617-.808-1.122-1.796-1.122-1.434 0-2.038 1.365-2.991 6.75-.657 3.712-1.476 7.763-1.82 9-.455 1.635-.203 2.25.923 2.25 1.659 0 2.187-1.214 3.261-7.5.795-4.653 1.961-6.374 5.132-7.579 1.26-.48 2.291-1.558 2.291-2.396 0-1.819.078-1.824-2.75.149m21.805-.407c-7.715 3.904-8.976 17.733-1.618 17.733 2.394 0 7.563-3.467 7.563-5.073 0-1.654-2.135-.982-3.934 1.24-2.357 2.91-5.066 1.826-5.066-2.029 0-3.263 1.391-4.138 6.582-4.138 3.305 0 3.418-.128 3.418-3.893 0-5.017-2.208-6.237-6.945-3.84m13.066 3.483a140.251 140.251 0 0 0-1.613 7.25c-.362 1.925-.879 4.288-1.15 5.25-.312 1.108.058 1.75 1.007 1.75 1.544 0 1.708-.358 3.673-8 1.381-5.368 2.566-7 5.084-7 1.033 0 1.878-.675 1.878-1.5 0-1.827-1.149-1.925-2.925-.25-1.06 1-1.417 1-1.783 0-.928-2.53-3.242-1.143-4.171 2.5m-55.642-.358c-2.332 3.558-2.529 11.925-.292 12.384 2.5.513 4.957-3.996 5.147-9.444.197-5.655-2.146-7.074-4.855-2.94m42.078-.169c-2.208 3.152-1.964 3.777 1.474 3.777 3.416 0 4.867-2.213 2.958-4.513-1.682-2.026-2.605-1.873-4.432.736m-148.99.703c-2.192 2.422-1.681 5.483.98 5.866 2.544.366 6.928-4.111 6.111-6.241-.829-2.159-4.997-1.939-7.091.375m43.179 11.622c-.374 1.958-.112 2.477 1.133 2.24.892-.17 1.765-1.316 1.941-2.548.455-3.19-2.461-2.897-3.074.308m30.254.035c0 3.133 2.348 2.79 2.82-.411.212-1.443-.208-2.172-1.25-2.172-1.021 0-1.57.903-1.57 2.583" fill-rule="evenodd"/></svg>