<svg xmlns="http://www.w3.org/2000/svg" viewBox="0 0 1253 1080"><path d="m240.587 244.231-7.584 8.243 3.748 3.632c5.319 5.154 807.467 745.103 809.539 746.766 1.525 1.224 2.439.588 8.46-5.885 3.712-3.992 7.089-7.836 7.504-8.541.602-1.025-799.85-741.168-811.87-750.701-2.189-1.737-2.294-1.667-9.797 6.486M678.245 423.25l.255 96.25 205.24.252 205.24.253.26-96.086c.143-52.847.072-96.273-.157-96.502-.229-.23-92.819-.417-205.755-.417H677.99l.255 96.25m32.362-56.668c-1.116 2.907-.658 16.967.593 18.218.838.838 6.267 1.2 18 1.2H746v46.8c0 35.067.301 47.101 1.2 48 1.256 1.256 18.252 1.731 21.218.593 1.411-.541 1.582-5.567 1.582-46.418 0-25.196.273-46.523.607-47.393.52-1.355 3.001-1.582 17.3-1.582 19.811 0 19.093.395 19.093-10.5 0-4.967-.464-8.564-1.2-9.3-2.064-2.064-94.397-1.693-95.193.382m111.06-.915c-1.295 1.295-.774 113.826.533 115.133 1.654 1.654 18.861 1.613 21.103-.05 1.508-1.119 1.712-4.558 1.941-32.75l.256-31.5 3.173 8.5c1.745 4.675 6.816 18.813 11.267 31.418 4.452 12.605 8.592 23.518 9.2 24.25 1.233 1.486 17.414 1.902 19.615.505 1.126-.715 7.863-18.839 19.488-52.423 2.237-6.462 4.441-11.75 4.898-11.75.457 0 .95 14.512 1.095 32.25l.264 32.25 9 .294c4.95.162 10.016.04 11.258-.271l2.258-.565-.258-57.729-.258-57.729-13.104-.278c-9.72-.206-13.365.052-14.111 1-.554.703-5.538 14.103-11.076 29.778-17.287 48.929-18.487 52.122-19.275 51.301-.423-.441-2.337-5.301-4.255-10.801-9.965-28.58-24.819-68.964-25.803-70.149-1.185-1.428-25.845-2.048-27.209-.684m137 0c-1.492 1.491-.735 80.653.828 86.653 5.325 20.443 20.762 31.116 45.005 31.116 24.589 0 40.447-11.252 45.011-31.936 1.278-5.793 1.497-13.813 1.267-46.5l-.278-39.5-10.601-.282c-7.89-.21-10.883.058-11.706 1.05-.757.912-1.199 14.129-1.4 41.863l-.293 40.53-3 4.829c-4.249 6.839-8.827 9.01-19 9.01-10.777 0-15.815-2.661-19.75-10.429l-2.75-5.43v-39.62c0-29.483-.307-39.928-1.2-40.821-1.281-1.281-20.913-1.754-22.133-.533M198.677 644.75a42141.942 42141.942 0 0 1-26.993 64.75c-12.044 28.806-13.197 32.071-11.549 32.712 1.126.437 1.604 1.304 1.241 2.25-.515 1.343 1.371 1.538 14.91 1.538h15.501l3.856-11.25 3.857-11.25 10.399-.287 10.399-.286-.564 9.462c-.455 7.617-.289 9.568.851 10.005.778.299 1.415 1.232 1.415 2.075 0 1.31 2.262 1.531 15.64 1.531h15.641l-.504-64.705c-.366-47.027-.815-64.808-1.641-65.083-.625-.208-1.136-1.241-1.136-2.295 0-1.821-.94-1.917-18.855-1.917h-18.854l-13.614 32.75M543.5 614.736c-15.13 3.811-67.656 23.266-102 37.779-86.796 36.68-172.623 89.434-221.611 136.217-4.186 3.997-7.903 7.268-8.26 7.268-.357 0-3.907-2.636-7.889-5.859-27.773-22.474-60.278-38.105-84.611-40.689-7.934-.842-8.059-1.089 5.871 11.536 46.068 41.747 73.921 74.134 80.849 94.009l1.13 3.242 4.761-5.361c34.05-38.351 75.098-76.766 118.717-111.104 15.195-11.962 17.116-13.155 16.117-10.006-.309.972-1.491 6.034-2.628 11.25a30641.88 30641.88 0 0 1-9.506 43.24c-8.313 37.72-7.985 35.742-5.94 35.742.84 0 1.5.892 1.5 2.025 0 1.96.511 2.017 15.649 1.75l15.649-.275 3.834-18c15.827-74.292 22.96-105.939 24.37-108.118 1.278-1.975 10.339-7.969 10.915-7.22.143.186-1.656 8.888-3.998 19.338-6.756 30.146-22.202 100.63-22.956 104.75-.56 3.065-.391 3.75.926 3.75.944 0 1.611.827 1.611 2 0 1.964.667 2 36.775 2h36.776l2.791-12.25c1.535-6.737 3.016-13.038 3.292-14 .325-1.135-.05-1.75-1.067-1.75-.9 0-1.567-.851-1.567-2 0-1.932-.667-2-19.567-2-18.172 0-19.53-.125-19.036-1.75.62-2.041 4.603-19.986 4.603-20.739 0-.281 8.712-.511 19.36-.511h19.359l2.822-13.19c2.046-9.564 2.496-13.298 1.64-13.583-.65-.217-1.181-1.031-1.181-1.81 0-1.169-3.069-1.417-17.5-1.417-9.625 0-17.5-.197-17.5-.438 0-.378.582-3.064 3.536-16.312.501-2.244.56-2.25 20.964-2.25 20.396 0 20.464-.007 20.993-2.25 1.571-6.662 5.507-25.172 5.507-25.901 0-.467-.723-.849-1.607-.849-1.011 0-1.395-.551-1.036-1.487.497-1.295-3.847-1.521-33.643-1.75L406.5 687.5l13.22-8.25c34.044-21.247 80.293-44.957 117.528-60.252 4.262-1.751 8.001-3.591 8.309-4.091.309-.499.422-.855.252-.791-.17.064-1.209.343-2.309.62m-319.967 39.971C222.308 657.783 210 693.219 210 693.669c0 .234 2.813.292 6.25.129l6.25-.298 1.163-20c1.174-20.207 1.162-22.037-.13-18.793m292.784 31.729c-21.036 4.801-31.182 16.413-40.755 46.645-10.156 32.073-13.271 65.626-7.124 76.723 5.773 10.42 12.826 14.412 27.873 15.775 28.876 2.617 47.881-12.015 55.686-42.871 2.322-9.18 2.579-11.266 1.419-11.531-.779-.178-1.416-1.191-1.416-2.25 0-1.819-.862-1.927-15.388-1.927h-15.388l-2.271 9.25c-4.54 18.493-9.176 24.987-16.522 23.143-4.328-1.086-3.201-12.593 4.639-47.393 6.795-30.156 11.391-40 18.676-40 5.31 0 5.816 1.808 3.639 12.985-1.839 9.444-1.846 9.923-.153 10.366 1.143.298 1.558 1.032 1.165 2.056-.543 1.415 1.124 1.593 14.913 1.593h15.524l1.214-5.25c6.924-29.956-3.94-47.143-30.548-48.325-5.596-.249-11.339.134-15.183 1.011M95.263 703.514c-18.383 3.994-31.05 18.082-35.788 39.803-4.464 20.463 2.353 32.944 23.844 43.652 11.798 5.879 13.692 7.682 13.659 13.004-.051 8.275-6.289 16.04-12.863 16.012-5.827-.025-6.509-.942-5.793-7.791.496-4.75.323-6.116-.831-6.559-.823-.316-1.2-1.229-.867-2.097.774-2.018-30.005-2.349-31.249-.337-1.836 2.971-1.666 22.383.231 26.38 6.311 13.3 20.664 18.67 43.651 16.33 25.227-2.568 39.643-15.891 44.382-41.016 3.756-19.916-3.206-32.641-23.405-42.777C97.226 751.589 94 748.86 94 744.379c0-8.176 6.408-15.723 12.889-15.181l3.611.302-.079 6.75c-.059 4.988.267 6.75 1.25 6.75.731 0 1.329.675 1.329 1.5 0 1.266 2.325 1.5 14.928 1.5h14.928l.699-5.597c2.651-21.213-5.256-34.028-23.02-37.312-7.72-1.427-17.511-1.263-25.272.423m157.762 129.461c-4.476 4.476-3.934 9.846 1.238 12.281 3.983 1.875 4.877 4.553 2.25 6.733-1.992 1.654-4.513.56-4.513-1.958 0-1.5-.654-2.031-2.5-2.031-2.071 0-2.5.48-2.5 2.8 0 3.9 1.694 5.2 6.777 5.2 11.148 0 13.616-12.201 3.141-15.526-2.52-.8-2.457-4.115.103-5.485 2.291-1.226 3.979-.56 3.979 1.57 0 .87.99 1.441 2.5 1.441 2.938 0 3.437-2.92.929-5.429-2.272-2.271-8.965-2.035-11.404.404m20.417 3.775a676.766 676.766 0 0 1-6.085 12.5l-3.382 6.75h2.534c1.732 0 2.894-.791 3.673-2.5.884-1.94 1.887-2.5 4.479-2.5 2.895 0 3.339.332 3.339 2.5 0 2 .5 2.5 2.5 2.5 2.477 0 2.5-.08 2.489-8.75-.017-13.621-.672-16.25-4.047-16.25-2.425 0-3.156.765-5.5 5.75m15.225-5.083c-1.518 1.518-.52 3.333 1.833 3.333 3.03 0 3.023-.678.124 11.304l-2.372 9.805 2.579-.305c2.403-.283 2.742-1.006 4.948-10.554 2.34-10.125 2.405-10.25 5.295-10.25 2.259 0 2.926-.456 2.926-2 0-1.818-.667-2-7.333-2-4.034 0-7.634.3-8 .667m18.853.583c-.516 1.55-5.52 22.736-5.52 23.374 0 1.575 14.505-.26 14.813-1.874.278-1.46-.424-1.75-4.24-1.75-4.844 0-5.143-.369-3.598-4.435.824-2.167 1.6-2.565 5-2.565 3.358 0 4.025-.331 4.025-2 0-1.626-.667-2-3.566-2-3.301 0-3.543-.205-3.25-2.75.289-2.518.716-2.776 5.066-3.055 3.934-.252 4.75-.639 4.75-2.25 0-2.361-12.706-3.016-13.48-.695m19.102 1.213c-4.072 4.394-6.85 17.609-4.391 20.887 3.178 4.235 12.592 1.465 14.601-4.297 1.491-4.279-3.006-4.55-5.041-.303-1.537 3.208-5.074 3.734-5.632.838-.615-3.195 2.923-14.562 4.855-15.595 1.976-1.058 4.27.823 3.771 3.092-.392 1.783 3.274 2.429 4.33.763 4.055-6.398-7.099-11.206-12.493-5.385m23.226-.502c-8.716 4.741-11.153 18.129-3.998 21.959 4.34 2.322 15.579.432 17.684-2.975.584-.945.178-1.075-1.628-.519-7.243 2.23-12.512 1.89-14.746-.95-6.48-8.238 6.991-21.367 15.399-15.008 2.271 1.718 1.212 2.008-5.801 1.587-5.407-.326-10.011 4.332-9.569 9.679l.311 3.766 6.486.132c6.238.126 6.63-.012 10.25-3.633 9.844-9.843-1.591-21-14.388-14.038m22.8 4.135c-.357 3.409-.648 9.086-.648 12.617 0 6.392.012 6.418 2.71 6.103 2.333-.272 3.063-1.243 5.25-6.989 3.59-9.432 4.417-9.563 3.633-.577l-.676 7.75h2.849c2.703 0 3.091-.602 7.565-11.75 5.39-13.43 5.403-13.499 2.538-13.07-1.636.246-2.739 1.984-4.754 7.491-3.655 9.989-4.403 10.11-3.574.579l.717-8.25h-2.527c-2.237 0-2.844.867-5.275 7.531-2.829 7.756-5.132 11.042-4.097 5.844 1.545-7.761 1.161-12.863-.991-13.175-1.85-.268-2.142.364-2.72 5.896m34.589 6.404L401.01 856h2.976c2.357 0 3.109-.531 3.617-2.553.887-3.537 7.707-3.286 8.217.303.205 1.446 1.009 2.25 2.25 2.25 1.804 0 1.93-.817 1.93-12.5V831h-3.269c-3.184 0-3.427.32-9.494 12.5m31.246-11.25c-.519 1.43-5.483 22.47-5.483 23.242 0 .279 1.125.508 2.5.508s2.503-.562 2.506-1.25c.024-5.44 2.137-8.75 5.586-8.75 6.972 0 12.059-10.975 6.474-13.965-2.747-1.47-11.027-1.316-11.583.215M488 833.461c0 .804-.968 2.363-2.151 3.465-1.601 1.491-1.876 2.337-1.075 3.302.774.932.698 3.116-.271 7.756-1.558 7.467-1.387 8.016 2.497 8.016 3.169 0 4.969-1.783 3.017-2.989-1.929-1.193-.299-10.818 2.084-12.306 2.063-1.289 2.579-3.705.791-3.705-.683 0-.868-.96-.481-2.5.545-2.171.296-2.5-1.892-2.5-1.543 0-2.519.566-2.519 1.461m-45.303 2.289c-1.993 3.552-1.641 6.25.816 6.25 2.629 0 4.717-3.204 3.749-5.75-.515-1.354-3.879-1.722-4.565-.5m-166.947 5.514c-2.206 5.366-2.19 5.736.25 5.736 1.61 0 2-.667 2-3.418 0-1.88.273-4.13.607-5 1.424-3.712-1.267-1.185-2.857 2.682m137.5-.554c-2.774 5.192-2.813 6.29-.219 6.29 2.503 0 3.196-1.652 2.786-6.645l-.317-3.855-2.25 4.21m42.759-.873c-3.146 3.146-5.05 11.28-3.296 14.081 1.659 2.648 8.717 2.61 11.206-.061 3.591-3.855 5.315-13.223 2.881-15.657-2.249-2.249-7.738-1.416-10.791 1.637M473 837.55c0 .713-3.09 15.075-3.593 16.7-.416 1.344.037 1.75 1.955 1.75 2.236 0 2.619-.6 3.675-5.75 1.314-6.403 2.317-8.054 5.672-9.329 4.174-1.587 2.716-3.533-2.709-3.614-2.75-.042-5 .068-5 .243m25.241 1.7c-3.851 4.111-5.897 14.609-3.175 16.291 2.832 1.75 8.395.624 10.824-2.191l2.46-2.85-2.335-.34c-1.378-.202-2.699.31-3.224 1.25-1.128 2.014-3.674 2.059-4.434.077-1.005-2.618 1.604-4.487 6.265-4.487H509v-4.393c0-4.726-.928-5.607-5.907-5.607-1.555 0-3.658.975-4.852 2.25m16.388-1.459c-.268.434-1.208 3.922-2.087 7.75-.879 3.827-1.841 7.747-2.138 8.709-.415 1.35.044 1.75 2.01 1.75 1.963 0 2.69-.631 3.167-2.75 2.173-9.647 2.567-10.48 5.488-11.582 1.73-.653 2.931-1.836 2.931-2.887 0-2.04-2.031-2.35-3.8-.581-.933.933-1.2.933-1.2 0 0-1.327-3.596-1.663-4.371-.409m-153.475 4.83c-2.378 4.894-2.366 5.781.067 4.848 1.755-.674 3.779-4.699 3.779-7.516 0-3.239-1.473-2.218-3.846 2.668m-8.039-.989c-2.651 1.857-2.827 5.368-.27 5.368 1.954 0 5.155-2.932 5.155-4.722 0-1.836-2.68-2.19-4.885-.646m105.334 1.836c-1.866 4.466-1.904 9.532-.071 9.532 2.289 0 3.659-2.517 4.296-7.894.748-6.313-1.851-7.321-4.225-1.638m42.763-2.28c-2.006 2.006-1.441 3.984 1.038 3.632 1.44-.205 2.25-1.01 2.25-2.237 0-2.339-1.645-3.038-3.288-1.395m-106.545 10.479c-.367.366-.667 1.523-.667 2.569 0 2.854 4.402 1.953 4.82-.986.313-2.209-2.467-3.269-4.153-1.583m30 0c-1.443 1.443-.625 4.333 1.226 4.333 1.735 0 3.107-1.803 3.107-4.082 0-1.055-3.336-1.249-4.333-.251" fill-rule="evenodd"/></svg>